<?xml version="1.0" encoding="UTF-8"?>
<svg xmlns="http://www.w3.org/2000/svg" xmlns:xlink="http://www.w3.org/1999/xlink" width="50px" height="50px" viewBox="0 0 50 50" version="1.1">
<defs>
<filter id="alpha" filterUnits="objectBoundingBox" x="0%" y="0%" width="100%" height="100%">
  <feColorMatrix type="matrix" in="SourceGraphic" values="0 0 0 0 1 0 0 0 0 1 0 0 0 0 1 0 0 0 1 0"/>
</filter>
<mask id="mask0">
  <g filter="url(#alpha)">
<rect x="0" y="0" width="50" height="50" style="fill:rgb(0%,0%,0%);fill-opacity:0.988235;stroke:none;"/>
  </g>
</mask>
<clipPath id="clip1">
  <rect x="0" y="0" width="50" height="50"/>
</clipPath>
<g id="surface5" clip-path="url(#clip1)">
<path style=" stroke:none;fill-rule:evenodd;fill:rgb(55.686275%,85.882353%,99.607843%);fill-opacity:1;" d="M 33.25 6.050781 C 32.753906 5.785156 32.253906 5.785156 31.75 6.050781 C 31.648438 6.101562 31.632812 6.167969 31.699219 6.25 C 31.882812 6.433594 32.066406 6.617188 32.25 6.800781 C 32.144531 6.9375 32.011719 7.039062 31.851562 7.101562 C 31.984375 7.167969 32.117188 7.234375 32.25 7.300781 C 32.15625 7.347656 32.054688 7.363281 31.949219 7.351562 C 31.875 7.558594 31.875 7.757812 31.949219 7.949219 C 31.765625 8.09375 31.566406 8.207031 31.351562 8.300781 C 31.523438 8.429688 31.707031 8.546875 31.898438 8.648438 C 31.933594 8.804688 31.882812 8.9375 31.75 9.050781 C 32.28125 9.257812 32.28125 9.441406 31.75 9.601562 C 31.835938 9.667969 31.902344 9.753906 31.949219 9.851562 C 31.808594 9.992188 31.640625 10.09375 31.449219 10.148438 C 26.871094 9.324219 22.304688 8.441406 17.75 7.5 C 17.65625 7.460938 17.589844 7.394531 17.550781 7.300781 C 17.644531 7.105469 17.78125 6.9375 17.949219 6.800781 C 17.800781 6.632812 17.632812 6.484375 17.449219 6.351562 C 17.53125 6.277344 17.597656 6.195312 17.648438 6.101562 C 17.625 5.777344 17.492188 5.527344 17.25 5.351562 C 17.277344 5.234375 17.363281 5.167969 17.5 5.148438 C 17.789062 5.109375 18.074219 5.042969 18.351562 4.949219 C 18.101562 4.773438 17.867188 4.589844 17.648438 4.398438 C 17.902344 4.222656 18.136719 4.023438 18.351562 3.800781 C 18.117188 3.699219 17.949219 3.53125 17.851562 3.300781 C 18.039062 3.039062 18.273438 2.820312 18.550781 2.648438 C 18.285156 2.441406 18.203125 2.175781 18.300781 1.851562 C 18.355469 1.796875 18.421875 1.765625 18.5 1.75 C 23.164062 2.777344 27.832031 3.777344 32.5 4.75 C 32.699219 5.214844 32.949219 5.648438 33.25 6.050781 Z M 33.25 6.050781 "/>
</g>
<mask id="mask1">
  <g filter="url(#alpha)">
<rect x="0" y="0" width="50" height="50" style="fill:rgb(0%,0%,0%);fill-opacity:0.992157;stroke:none;"/>
  </g>
</mask>
<clipPath id="clip2">
  <rect x="0" y="0" width="50" height="50"/>
</clipPath>
<g id="surface8" clip-path="url(#clip2)">
<path style=" stroke:none;fill-rule:evenodd;fill:rgb(99.607843%,74.509804%,90.196078%);fill-opacity:1;" d="M 17.25 5.351562 C 17.492188 5.527344 17.625 5.777344 17.648438 6.101562 C 17.597656 6.195312 17.53125 6.277344 17.449219 6.351562 C 17.632812 6.484375 17.800781 6.632812 17.949219 6.800781 C 17.78125 6.9375 17.644531 7.105469 17.550781 7.300781 C 17.589844 7.394531 17.65625 7.460938 17.75 7.5 C 22.304688 8.441406 26.871094 9.324219 31.449219 10.148438 C 31.640625 10.09375 31.808594 9.992188 31.949219 9.851562 C 31.902344 9.753906 31.835938 9.667969 31.75 9.601562 C 32.28125 9.441406 32.28125 9.257812 31.75 9.050781 C 31.882812 8.9375 31.933594 8.804688 31.898438 8.648438 C 31.707031 8.546875 31.523438 8.429688 31.351562 8.300781 C 31.566406 8.207031 31.765625 8.09375 31.949219 7.949219 C 31.875 7.757812 31.875 7.558594 31.949219 7.351562 C 32.054688 7.363281 32.15625 7.347656 32.25 7.300781 C 32.117188 7.234375 31.984375 7.167969 31.851562 7.101562 C 32.011719 7.039062 32.144531 6.9375 32.25 6.800781 C 32.066406 6.617188 31.882812 6.433594 31.699219 6.25 C 31.632812 6.167969 31.648438 6.101562 31.75 6.050781 C 32.253906 5.785156 32.753906 5.785156 33.25 6.050781 C 35.425781 6.960938 37.359375 8.226562 39.050781 9.851562 C 39.351562 10.214844 39.683594 10.550781 40.050781 10.851562 C 40.355469 11.058594 40.589844 11.324219 40.75 11.648438 C 40.980469 12.011719 41.246094 12.347656 41.550781 12.648438 C 42.425781 13.699219 43.125 14.867188 43.648438 16.148438 C 44.664062 18.445312 45.28125 20.84375 45.5 23.351562 C 45.582031 24.359375 45.5625 25.359375 45.449219 26.351562 C 44.851562 26.429688 44.25 26.496094 43.648438 26.550781 C 43.046875 25.128906 42.097656 23.996094 40.800781 23.148438 C 41.257812 17.84375 39.140625 13.960938 34.449219 11.5 C 31.328125 10.203125 28.230469 10.238281 25.148438 11.601562 C 21.589844 11.75 18.890625 13.332031 17.050781 16.351562 C 13.820312 16.996094 11.871094 18.929688 11.199219 22.148438 C 7.335938 23.574219 5.570312 26.339844 5.898438 30.449219 C 6.640625 33.921875 8.757812 35.972656 12.25 36.601562 C 14.984375 36.632812 17.714844 36.667969 20.449219 36.699219 C 22.648438 37.507812 24.914062 37.777344 27.25 37.5 C 28.195312 37.351562 29.113281 37.101562 30 36.75 C 30.078125 36.757812 30.125 36.789062 30.148438 36.851562 C 28.765625 39.339844 27.964844 42.003906 27.75 44.851562 C 27.65625 44.992188 27.621094 45.160156 27.648438 45.351562 C 24.878906 45.703125 22.148438 45.519531 19.449219 44.800781 C 18.429688 44.476562 17.429688 44.128906 16.449219 43.75 C 11.46875 41.484375 7.917969 37.816406 5.800781 32.75 C 2.96875 24.976562 4.132812 17.875 9.300781 11.449219 C 11.539062 8.976562 14.1875 7.09375 17.25 5.800781 C 17.339844 5.660156 17.339844 5.507812 17.25 5.351562 Z M 17.25 5.351562 "/>
</g>
<mask id="mask2">
  <g filter="url(#alpha)">
<rect x="0" y="0" width="50" height="50" style="fill:rgb(0%,0%,0%);fill-opacity:0.12549;stroke:none;"/>
  </g>
</mask>
<clipPath id="clip3">
  <rect x="0" y="0" width="50" height="50"/>
</clipPath>
<g id="surface11" clip-path="url(#clip3)">
<path style=" stroke:none;fill-rule:evenodd;fill:rgb(99.607843%,98.431373%,99.215686%);fill-opacity:1;" d="M 39.050781 9.851562 C 39.484375 10.082031 39.816406 10.417969 40.050781 10.851562 C 39.683594 10.550781 39.351562 10.214844 39.050781 9.851562 Z M 39.050781 9.851562 "/>
</g>
<mask id="mask3">
  <g filter="url(#alpha)">
<rect x="0" y="0" width="50" height="50" style="fill:rgb(0%,0%,0%);fill-opacity:0.996078;stroke:none;"/>
  </g>
</mask>
<clipPath id="clip4">
  <rect x="0" y="0" width="50" height="50"/>
</clipPath>
<g id="surface14" clip-path="url(#clip4)">
<path style=" stroke:none;fill-rule:evenodd;fill:rgb(99.215686%,99.215686%,99.607843%);fill-opacity:1;" d="M 43.648438 26.550781 C 43.210938 26.667969 42.777344 26.800781 42.351562 26.949219 C 42.179688 26.441406 41.929688 25.972656 41.601562 25.550781 C 40.953125 24.835938 40.253906 24.203125 39.5 23.648438 C 40.121094 19.109375 38.535156 15.59375 34.75 13.101562 C 32.910156 12.085938 30.941406 11.6875 28.851562 11.898438 C 30.492188 12.296875 31.941406 13.046875 33.199219 14.148438 C 34.621094 16.273438 34.40625 18.222656 32.550781 20 C 31.691406 20.632812 30.722656 20.964844 29.648438 21 C 34.066406 22.75 35.964844 25.96875 35.351562 30.648438 C 34.640625 33.296875 33.058594 35.230469 30.601562 36.449219 C 30.429688 36.570312 30.28125 36.703125 30.148438 36.851562 C 30.125 36.789062 30.078125 36.757812 30 36.75 C 29.113281 37.101562 28.195312 37.351562 27.25 37.5 C 24.914062 37.777344 22.648438 37.507812 20.449219 36.699219 C 17.714844 36.667969 14.984375 36.632812 12.25 36.601562 C 8.757812 35.972656 6.640625 33.921875 5.898438 30.449219 C 5.570312 26.339844 7.335938 23.574219 11.199219 22.148438 C 11.871094 18.929688 13.820312 16.996094 17.050781 16.351562 C 18.890625 13.332031 21.589844 11.75 25.148438 11.601562 C 28.230469 10.238281 31.328125 10.203125 34.449219 11.5 C 39.140625 13.960938 41.257812 17.84375 40.800781 23.148438 C 42.097656 23.996094 43.046875 25.128906 43.648438 26.550781 Z M 43.648438 26.550781 "/>
</g>
<mask id="mask4">
  <g filter="url(#alpha)">
<rect x="0" y="0" width="50" height="50" style="fill:rgb(0%,0%,0%);fill-opacity:0.027451;stroke:none;"/>
  </g>
</mask>
<clipPath id="clip5">
  <rect x="0" y="0" width="50" height="50"/>
</clipPath>
<g id="surface17" clip-path="url(#clip5)">
<path style=" stroke:none;fill-rule:evenodd;fill:rgb(99.607843%,96.862745%,98.823529%);fill-opacity:1;" d="M 40.75 11.648438 C 41.128906 11.894531 41.398438 12.230469 41.550781 12.648438 C 41.246094 12.347656 40.980469 12.011719 40.75 11.648438 Z M 40.75 11.648438 "/>
</g>
<mask id="mask5">
  <g filter="url(#alpha)">
<rect x="0" y="0" width="50" height="50" style="fill:rgb(0%,0%,0%);fill-opacity:0.164706;stroke:none;"/>
  </g>
</mask>
<clipPath id="clip6">
  <rect x="0" y="0" width="50" height="50"/>
</clipPath>
<g id="surface20" clip-path="url(#clip6)">
<path style=" stroke:none;fill-rule:evenodd;fill:rgb(99.607843%,98.823529%,98.823529%);fill-opacity:1;" d="M 43.648438 16.148438 C 44.710938 18.214844 45.359375 20.414062 45.601562 22.75 C 45.636719 23.601562 45.683594 24.449219 45.75 25.300781 C 45.726562 25.6875 45.675781 26.070312 45.601562 26.449219 C 45.113281 26.972656 44.664062 27.519531 44.25 28.101562 C 44.125 28.175781 44.023438 28.15625 43.949219 28.050781 C 44.414062 27.453125 44.914062 26.886719 45.449219 26.351562 C 45.5625 25.359375 45.582031 24.359375 45.5 23.351562 C 45.28125 20.84375 44.664062 18.445312 43.648438 16.148438 Z M 43.648438 16.148438 "/>
</g>
<mask id="mask6">
  <g filter="url(#alpha)">
<rect x="0" y="0" width="50" height="50" style="fill:rgb(0%,0%,0%);fill-opacity:0.996078;stroke:none;"/>
  </g>
</mask>
<clipPath id="clip7">
  <rect x="0" y="0" width="50" height="50"/>
</clipPath>
<g id="surface23" clip-path="url(#clip7)">
<path style=" stroke:none;fill-rule:evenodd;fill:rgb(99.607843%,94.509804%,54.509804%);fill-opacity:1;" d="M 45.449219 26.351562 C 44.914062 26.886719 44.414062 27.453125 43.949219 28.050781 C 43.582031 28.351562 43.246094 28.6875 42.949219 29.050781 C 40.910156 31.121094 38.945312 33.257812 37.050781 35.449219 C 36.648438 35.851562 36.25 36.25 35.851562 36.648438 C 33.15625 39.496094 30.472656 42.359375 27.800781 45.25 C 27.75 45.121094 27.734375 44.988281 27.75 44.851562 C 27.964844 42.003906 28.765625 39.339844 30.148438 36.851562 C 30.28125 36.703125 30.429688 36.570312 30.601562 36.449219 C 33.058594 35.230469 34.640625 33.296875 35.351562 30.648438 C 37.449219 28.988281 39.78125 27.757812 42.351562 26.949219 C 42.777344 26.800781 43.210938 26.667969 43.648438 26.550781 C 44.25 26.496094 44.851562 26.429688 45.449219 26.351562 Z M 45.449219 26.351562 "/>
</g>
<mask id="mask7">
  <g filter="url(#alpha)">
<rect x="0" y="0" width="50" height="50" style="fill:rgb(0%,0%,0%);fill-opacity:0.27451;stroke:none;"/>
  </g>
</mask>
<clipPath id="clip8">
  <rect x="0" y="0" width="50" height="50"/>
</clipPath>
<g id="surface26" clip-path="url(#clip8)">
<path style=" stroke:none;fill-rule:evenodd;fill:rgb(99.607843%,98.039216%,96.078431%);fill-opacity:1;" d="M 42.949219 29.050781 C 42.964844 29.15625 42.949219 29.253906 42.898438 29.351562 C 41.160156 31.222656 39.425781 33.089844 37.699219 34.949219 C 37.523438 35.179688 37.304688 35.34375 37.050781 35.449219 C 38.945312 33.257812 40.910156 31.121094 42.949219 29.050781 Z M 42.949219 29.050781 "/>
</g>
<mask id="mask8">
  <g filter="url(#alpha)">
<rect x="0" y="0" width="50" height="50" style="fill:rgb(0%,0%,0%);fill-opacity:0.309804;stroke:none;"/>
  </g>
</mask>
<clipPath id="clip9">
  <rect x="0" y="0" width="50" height="50"/>
</clipPath>
<g id="surface29" clip-path="url(#clip9)">
<path style=" stroke:none;fill-rule:evenodd;fill:rgb(99.607843%,97.647059%,96.470588%);fill-opacity:1;" d="M 35.851562 36.648438 C 35.957031 36.726562 35.972656 36.824219 35.898438 36.949219 C 35.503906 37.246094 35.136719 37.578125 34.800781 37.949219 C 34.195312 38.585938 33.628906 39.253906 33.101562 39.949219 C 31.308594 41.808594 29.523438 43.65625 27.75 45.5 C 24.214844 45.960938 20.78125 45.5625 17.449219 44.300781 C 17.09375 44.140625 16.761719 43.957031 16.449219 43.75 C 17.429688 44.128906 18.429688 44.476562 19.449219 44.800781 C 22.148438 45.519531 24.878906 45.703125 27.648438 45.351562 C 27.621094 45.160156 27.65625 44.992188 27.75 44.851562 C 27.734375 44.988281 27.75 45.121094 27.800781 45.25 C 30.472656 42.359375 33.15625 39.496094 35.851562 36.648438 Z M 35.851562 36.648438 "/>
</g>
</defs>
<g id="surface1">
<use xlink:href="#surface5" mask="url(#mask0)"/>
<use xlink:href="#surface8" mask="url(#mask1)"/>
<use xlink:href="#surface11" mask="url(#mask2)"/>
<use xlink:href="#surface14" mask="url(#mask3)"/>
<path style=" stroke:none;fill-rule:evenodd;fill:rgb(99.607843%,74.509804%,90.588235%);fill-opacity:1;" d="M 42.351562 26.949219 C 39.78125 27.757812 37.449219 28.988281 35.351562 30.648438 C 35.964844 25.96875 34.066406 22.75 29.648438 21 C 30.722656 20.964844 31.691406 20.632812 32.550781 20 C 34.40625 18.222656 34.621094 16.273438 33.199219 14.148438 C 31.941406 13.046875 30.492188 12.296875 28.851562 11.898438 C 30.941406 11.6875 32.910156 12.085938 34.75 13.101562 C 38.535156 15.59375 40.121094 19.109375 39.5 23.648438 C 40.253906 24.203125 40.953125 24.835938 41.601562 25.550781 C 41.929688 25.972656 42.179688 26.441406 42.351562 26.949219 Z M 42.351562 26.949219 "/>
<use xlink:href="#surface17" mask="url(#mask4)"/>
<path style=" stroke:none;fill-rule:evenodd;fill:rgb(32.941176%,44.705882%,99.607843%);fill-opacity:1;" d="M 18.449219 21.148438 C 18.378906 20.03125 18.480469 18.929688 18.75 17.851562 C 19.308594 16.539062 20.210938 15.523438 21.449219 14.800781 C 23.96875 13.605469 26.570312 13.4375 29.25 14.300781 C 29.945312 14.582031 30.609375 14.914062 31.25 15.300781 C 32.230469 16.394531 32.164062 17.425781 31.050781 18.398438 C 30.621094 18.667969 30.15625 18.820312 29.648438 18.851562 C 28.660156 18.539062 27.660156 18.257812 26.648438 18 C 25.476562 17.765625 24.460938 18.046875 23.601562 18.851562 C 23.148438 19.792969 23.363281 20.542969 24.25 21.101562 C 25.964844 21.890625 27.699219 22.625 29.449219 23.300781 C 32.714844 24.8125 33.898438 27.328125 33 30.851562 C 32.160156 32.859375 30.710938 34.207031 28.648438 34.898438 C 25.109375 35.960938 21.828125 35.445312 18.800781 33.351562 C 18.042969 31.746094 18.492188 30.632812 20.148438 30 C 20.617188 29.933594 21.082031 29.933594 21.550781 30 C 22.472656 30.484375 23.4375 30.851562 24.449219 31.101562 C 25.148438 31.167969 25.851562 31.167969 26.550781 31.101562 C 28.003906 30.675781 28.453125 29.757812 27.898438 28.351562 C 27.746094 28.164062 27.5625 28.015625 27.351562 27.898438 C 25.640625 27.078125 23.90625 26.3125 22.148438 25.601562 C 20.171875 24.722656 18.9375 23.242188 18.449219 21.148438 Z M 18.449219 21.148438 "/>
<use xlink:href="#surface20" mask="url(#mask5)"/>
<path style=" stroke:none;fill-rule:evenodd;fill:rgb(99.607843%,74.509804%,90.588235%);fill-opacity:1;" d="M 15.949219 17.949219 C 16.082031 17.949219 16.214844 17.949219 16.351562 17.949219 C 15.601562 22.535156 17.335938 25.785156 21.550781 27.699219 C 18.742188 27.558594 16.992188 28.84375 16.300781 31.550781 C 16.128906 33.058594 16.613281 34.308594 17.75 35.300781 C 15.714844 35.394531 13.679688 35.359375 11.648438 35.199219 C 8.8125 34.261719 7.277344 32.292969 7.050781 29.300781 C 7.339844 26.089844 9.039062 24.054688 12.148438 23.199219 C 12.269531 23.109375 12.351562 22.992188 12.398438 22.851562 C 12.707031 20.5625 13.890625 18.929688 15.949219 17.949219 Z M 15.949219 17.949219 "/>
<path style=" stroke:none;fill-rule:evenodd;fill:rgb(52.941176%,60%,100%);fill-opacity:1;" d="M 18.75 17.851562 C 18.480469 18.929688 18.378906 20.03125 18.449219 21.148438 C 18.335938 20.367188 18.316406 19.566406 18.398438 18.75 C 18.488281 18.429688 18.605469 18.128906 18.75 17.851562 Z M 18.75 17.851562 "/>
<use xlink:href="#surface23" mask="url(#mask6)"/>
<use xlink:href="#surface26" mask="url(#mask7)"/>
<use xlink:href="#surface29" mask="url(#mask8)"/>
</g>
</svg>
